<svg height="120" viewBox="0 0 120 120" width="120" xmlns="http://www.w3.org/2000/svg"><path d="m39 78c5.3399801 0 10.3624128-1.0174477 15.0672981-3.052343s8.8459621-4.8474576 12.4232303-8.4376869 6.3898305-7.7377867 8.437687-12.442672c2.0478564-4.7048853 3.0717846-9.727318 3.0717846-15.0672981s-1.0239282-10.3624128-3.0717846-15.0672981c-2.0478565-4.7048853-4.8604188-8.8524427-8.437687-12.442672s-7.7248255-6.40279161-12.442672-8.43768693c-4.7178464-2.03489531-9.7467597-3.05234297-15.0867397-3.05234297-5.3399801 0-10.3624128 1.01744766-15.0672982 3.05234297-4.7048853 2.03489532-8.8459621 4.84745763-12.4232303 8.43768693-3.57726816 3.5902293-6.38334991 7.7377867-8.41824523 12.442672-2.03489531 4.7048853-3.05234297 9.727318-3.05234297 15.0672981s1.01744766 10.3624128 3.05234297 15.0672981c2.03489532 4.7048853 4.84745763 8.8524427 8.43768693 12.442672s7.7377867 6.4027916 12.442672 8.4376869 9.727318 3.052343 15.0672981 3.052343zm0-5.0159521c-4.7178465 0-9.1246261-.881356-13.220339-2.6440678-4.0957128-1.7627119-7.6989033-4.1994018-10.8095713-7.3100698s-5.54087734-6.720339-7.29062808-10.829013c-1.74975075-4.108674-2.62462613-8.5089731-2.62462613-13.2008973s.87487538-9.0922233 2.62462613-13.2008973c1.74975074-4.108674 4.17347958-7.7248255 7.27118648-10.8484546 3.0977068-3.1236292 6.7008973-5.56031909 10.8095712-7.31006983 4.108674-1.74975075 8.5089731-2.62462613 13.2008974-2.62462613 4.7178464 0 9.1246261.87487538 13.2203389 2.62462613 4.0957129 1.74975074 7.7053839 4.18644063 10.829013 7.31006983 3.1236291 3.1236291 5.5667996 6.7397806 7.3295115 10.8484546 1.7627118 4.108674 2.6440678 8.5089731 2.6440678 13.2008973s-.8748754 9.0922233-2.6246262 13.2008973c-1.7497507 4.108674-4.1799601 7.718345-7.2906281 10.829013s-6.7268195 5.5473579-10.8484546 7.3100698c-4.1216351 1.7627118-8.5284148 2.6440678-13.220339 2.6440678zm-17.2642074-31.10668c0 .4147557.1490529.7582253.4471585 1.0304088.2981057.2721834.6674976.4082751 1.1081755.4082751h13.5702892l-7.3100698 19.5972084c-.2851446.7258226-.2721835 1.3155534.0388833 1.7691924.3110668.4536391.7517448.6934198 1.3220339.719342s1.0887338-.2592223 1.555334-.8554337l21.9302094-27.4905284c.3888335-.5184447.5832502-.9850449.5832502-1.3998006s-.1490528-.7582253-.4471585-1.0304088c-.2981057-.2721834-.6674975-.4082751-1.1081755-.4082751h-13.5702891l7.3100698-19.6360918c.2851446-.7258225.2721834-1.3155533-.0388834-1.7691924s-.7517447-.6869392-1.3220339-.7003139c-.5702891-.0125475-1.0887338.2790776-1.555334.875289l-21.9302093 27.4905284c-.3888335.4925224-.5832503.9591226-.5832503 1.3998006z" transform="translate(20.817383 21.301758)"/></svg>